# Blender v2.69 (sub 0) OBJ File: ''
# www.blender.org
mtllib box2.mtl
o Plane.005
v 10.000000 2.000000 10.000000
v -10.000000 2.000000 10.000000
v 10.000000 2.000000 -10.000000
v -10.000000 2.000000 -10.000000
v -10.000008 0.000000 -10.000000
v -9.999994 0.000000 10.000000
v -10.000006 2.000000 -10.000000
v -9.999992 2.000000 10.000000
v 10.000000 0.000000 9.999999
v -10.000000 0.000000 9.999999
v 10.000000 2.000000 10.000001
v -10.000000 2.000000 10.000001
v 10.000000 0.000000 10.000000
v -10.000000 0.000000 10.000000
v 10.000000 0.000000 -10.000000
v -10.000000 0.000000 -10.000000
v 9.999992 0.000000 -10.000000
v 10.000006 0.000000 10.000000
v 9.999994 2.000000 -10.000000
v 10.000008 2.000000 10.000000
v 10.000000 0.000000 -10.000001
v -10.000000 0.000000 -10.000001
v 10.000000 2.000000 -9.999999
v -10.000000 2.000000 -9.999999
vn 0.000000 1.000000 0.000000
vn 1.000000 -0.000001 -0.000001
vn 0.000000 -0.000001 1.000000
usemtl None
s off
f 2//1 1//1 3//1 4//1
f 6//2 5//2 7//2 8//2
f 10//3 9//3 11//3 12//3
f 14//1 13//1 15//1 16//1
f 18//2 17//2 19//2 20//2
f 22//3 21//3 23//3 24//3
